<?xml version="1.0" encoding="utf-8"?>
<!-- Generator: Adobe Illustrator 22.1.0, SVG Export Plug-In . SVG Version: 6.00 Build 0)  -->
<svg version="1.1" id="레이어_1" xmlns="http://www.w3.org/2000/svg" xmlns:xlink="http://www.w3.org/1999/xlink" x="0px"
	 y="0px" viewBox="0 0 64 64" style="enable-background:new 0 0 64 64;" xml:space="preserve">
<style type="text/css">
	.st0{fill:#00C4ED;}
	.st1{fill:none;}
	.st2{fill:url(#SVGID_1_);}
	.st3{fill:#0093B2;}
</style>
<g>
	<g>
		<g id="memory_6_">
			<path class="st0" d="M56,29.3V24h-5.3v-5.3c0-2.9-2.4-5.3-5.3-5.3H40V8h-5.3v5.3h-5.3V8H24v5.3h-5.3c-2.9,0-5.3,2.4-5.3,5.3V24H8
				v5.3h5.3v5.3H8V40h5.3v5.3c0,2.9,2.4,5.3,5.3,5.3H24V56h5.3v-5.3h5.3V56H40v-5.3h5.3c2.9,0,5.3-2.4,5.3-5.3V40H56v-5.3h-5.3v-5.3
				H56z"/>
		</g>
		<rect class="st1" width="64" height="64"/>
	</g>
	<g>
		<path d="M26.8,24h3.8l5.7,16h-3.6l-1.1-3.3h-5.9L24.6,40h-3.5L26.8,24z M26.6,34h4.1l-2-6.3L26.6,34z"/>
		<path d="M42.9,40h-4V24h4V40z"/>
	</g>
	<g>
		<linearGradient id="SVGID_1_" gradientUnits="userSpaceOnUse" x1="27.2918" y1="27.2917" x2="49.0883" y2="49.0881">
			<stop  offset="0" style="stop-color:#0093B2"/>
			<stop  offset="1" style="stop-color:#00C4ED"/>
		</linearGradient>
		<path class="st2" d="M53.6,34.7h-2.9v-2.9L42.9,24v12.3V40h-4v-7.7L30.6,24l5.7,16h-3.6l-1.1-3.3h-5.9L24.6,40h-3.5l10.7,10.7h2.9
			v2.9l2.4,2.4H40v-5.3h5.3c1.2,0,2.3-0.4,3.2-1.1c1.3-1,2.2-2.5,2.2-4.3v-1.3V40H56v-2.9L53.6,34.7z"/>
		<polygon class="st3" points="28.7,27.7 30.7,34 26.6,34 		"/>
	</g>
</g>
</svg>
